<svg width="20" height="14" viewBox="0 0 20 14" fill="none" xmlns="http://www.w3.org/2000/svg">
<path d="M9.625 4.00539C8.92881 4.00539 8.26113 4.28672 7.76884 4.78749C7.27656 5.28826 7 5.96745 7 6.67565C7 7.38385 7.27656 8.06304 7.76884 8.56381C8.26113 9.06458 8.92881 9.34591 9.625 9.34591C10.3212 9.34591 10.9889 9.06458 11.4812 8.56381C11.9734 8.06304 12.25 7.38385 12.25 6.67565C12.25 5.96745 11.9734 5.28826 11.4812 4.78749C10.9889 4.28672 10.3212 4.00539 9.625 4.00539ZM9.625 11.1261C8.46468 11.1261 7.35188 10.6572 6.53141 9.82258C5.71094 8.98796 5.25 7.85598 5.25 6.67565C5.25 5.49532 5.71094 4.36334 6.53141 3.52872C7.35188 2.6941 8.46468 2.22522 9.625 2.22522C10.7853 2.22522 11.8981 2.6941 12.7186 3.52872C13.5391 4.36334 14 5.49532 14 6.67565C14 7.85598 13.5391 8.98796 12.7186 9.82258C11.8981 10.6572 10.7853 11.1261 9.625 11.1261ZM9.625 0C5.25 0 1.51375 2.76817 0 6.67565C1.51375 10.5831 5.25 13.3513 9.625 13.3513C14 13.3513 17.7362 10.5831 19.25 6.67565C17.7362 2.76817 14 0 9.625 0Z" fill="black"/>
</svg>
